<svg width="20" height="20" viewBox="0 0 20 20" fill="none" xmlns="http://www.w3.org/2000/svg">
<path d="M17.1032 7.60397L10.8532 13.854C10.7661 13.9414 10.6626 14.0107 10.5486 14.058C10.4347 14.1054 10.3125 14.1297 10.1891 14.1297C10.0657 14.1297 9.94356 14.1054 9.82961 14.058C9.71565 14.0107 9.61216 13.9414 9.52506 13.854L3.27506 7.60397C3.09894 7.42785 3 7.18898 3 6.93991C3 6.69084 3.09894 6.45197 3.27506 6.27584C3.45118 6.09972 3.69005 6.00078 3.93913 6.00078C4.1882 6.00078 4.42707 6.09972 4.60319 6.27584L10.1899 11.8626L15.7766 6.27506C15.9527 6.09894 16.1916 6 16.4407 6C16.6898 6 16.9286 6.09894 17.1047 6.27506C17.2809 6.45118 17.3798 6.69005 17.3798 6.93913C17.3798 7.1882 17.2809 7.42707 17.1047 7.60319L17.1032 7.60397Z" fill="#9282FA"/>
</svg>
