<svg width="20" height="21" viewBox="0 0 20 21" fill="none" xmlns="http://www.w3.org/2000/svg">
<path d="M17.1032 8.10397L10.8532 14.354C10.7661 14.4414 10.6626 14.5107 10.5486 14.558C10.4347 14.6054 10.3125 14.6297 10.1891 14.6297C10.0657 14.6297 9.94356 14.6054 9.82961 14.558C9.71565 14.5107 9.61216 14.4414 9.52506 14.354L3.27506 8.10397C3.09894 7.92785 3 7.68898 3 7.43991C3 7.19084 3.09894 6.95197 3.27506 6.77584C3.45118 6.59972 3.69005 6.50078 3.93913 6.50078C4.1882 6.50078 4.42707 6.59972 4.60319 6.77584L10.1899 12.3626L15.7766 6.77506C15.9527 6.59894 16.1916 6.5 16.4407 6.5C16.6898 6.5 16.9286 6.59894 17.1047 6.77506C17.2809 6.95118 17.3798 7.19005 17.3798 7.43913C17.3798 7.6882 17.2809 7.92707 17.1047 8.10319L17.1032 8.10397Z" fill="white"/>
</svg>
